<?xml version="1.0" encoding="UTF-8" standalone="no"?>
<svg width="116px" height="116px" viewBox="0 0 116 116" version="1.1" xmlns="http://www.w3.org/2000/svg" xmlns:xlink="http://www.w3.org/1999/xlink">
    <!-- Generator: Sketch 47 (45396) - http://www.bohemiancoding.com/sketch -->
    <title>Icon Play Copy 2</title>
    <desc>Created with Sketch.</desc>
    <defs>
        <circle id="path-1" cx="58" cy="58" r="58"></circle>
        <path d="M62.8332255,40.2778856 L86.0436428,77.4145533 L86.0436428,77.4145533 C86.3363532,77.8828899 86.19398,78.4998402 85.7256435,78.7925506 C85.5667119,78.8918828 85.3830642,78.9445523 85.1956445,78.9445523 L40.4708065,78.9445523 L40.4708065,78.9445523 C39.9185217,78.9445523 39.4708065,78.496837 39.4708065,77.9445523 C39.4708065,77.7571326 39.5234759,77.5734849 39.6228082,77.4145533 L62.8332255,40.2778856 Z" id="path-2"></path>
    </defs>
    <g id="Page-1" stroke="none" stroke-width="1" fill="none" fill-rule="evenodd">
        <g id="Icon-Play">
            <g id="Group">
                <g id="Oval" opacity="0.249999985">
                    <use fill="#FFFFFF" fill-rule="evenodd" xlink:href="#path-1"></use>
                    <circle stroke-opacity="0.49" stroke="#000000" stroke-width="1" cx="58" cy="58" r="57.5"></circle>
                </g>
                <g id="Triangle" transform="translate(62.833333, 59.611219) rotate(90.000000) translate(-62.833333, -59.611219) ">
                    <use fill="#F5F6F7" fill-rule="evenodd" xlink:href="#path-2"></use>
                    <path stroke-opacity="0.1" stroke="#000000" stroke-width="1" d="M62.8332255,39.3344875 L86.467642,77.1495539 C86.9067075,77.8520587 86.6931477,78.7774842 85.9906429,79.2165497 C85.7522455,79.3655481 85.4767741,79.4445523 85.1956445,79.4445523 L40.4708065,79.4445523 C39.6423794,79.4445523 38.9708065,78.7729794 38.9708065,77.9445523 C38.9708065,77.6634227 39.0498106,77.3879513 39.198809,77.1495539 L62.8332255,39.3344875 Z"></path>
                </g>
            </g>
        </g>
    </g>
</svg>